<?xml version="1.0" encoding="utf-8"?>
<!-- Generator: Adobe Illustrator 16.0.0, SVG Export Plug-In . SVG Version: 6.00 Build 0)  -->
<!DOCTYPE svg PUBLIC "-//W3C//DTD SVG 1.1//EN" "http://www.w3.org/Graphics/SVG/1.1/DTD/svg11.dtd">
<svg version="1.1" id="Layer_1" xmlns="http://www.w3.org/2000/svg" xmlns:xlink="http://www.w3.org/1999/xlink" x="0px" y="0px"
	 width="283.46px" height="192.76px" viewBox="0 0 283.46 192.76" enable-background="new 0 0 283.46 192.76" xml:space="preserve">
<g id="XMLID_1_">
	<g>
		<path d="M274.177,66.533c0-1.784,0-3.568,0-5.318c4.075-0.636,4.243-0.43,3.523,3.462c-0.117,0.624,0.201,1.327,0.446,2.731
			c-0.836-0.931-1.188-1.282-1.488-1.672c-0.268-0.346-0.475-0.73-1.065-1.656c-0.507,1.215-0.786,1.884-1.064,2.553
			C274.411,66.6,274.294,66.566,274.177,66.533z"/>
		<path fill="#FFFFFF" d="M277.7,64.676c0.72-3.892,0.552-4.098-3.523-3.462c0,1.75,0,3.534,0,5.318
			c0.117,0.033,0.234,0.067,0.352,0.1c0.278-0.669,0.558-1.338,1.064-2.553c0.591,0.925,0.798,1.31,1.065,1.656
			c0.301,0.39,0.652,0.741,1.488,1.672C277.901,66.003,277.583,65.3,277.7,64.676z M275.922,68.685
			c-2.76-0.039-4.816-2.258-4.683-5.079c0.122-2.604,2.397-4.688,4.961-4.549c2.554,0.134,4.688,2.436,4.622,4.973
			C280.755,66.588,278.515,68.718,275.922,68.685z"/>
		<path d="M271.239,63.606c-0.134,2.821,1.923,5.04,4.683,5.079c2.593,0.033,4.833-2.096,4.9-4.655
			c0.066-2.537-2.068-4.839-4.622-4.973C273.637,58.917,271.361,61.002,271.239,63.606z M276.017,69.699
			c-3.322,0.005-5.814-2.431-5.854-5.731c-0.039-3.345,2.637-6.032,5.948-5.965c3.184,0.062,5.765,2.726,5.748,5.92
			C281.837,67.157,279.272,69.693,276.017,69.699z"/>
		<path d="M231.73,70.747c-0.897-0.022-2.358-1.488-2.464-2.447c-0.101-0.897,1.249-1.951,2.548-3.747
			c1.237,1.834,2.547,2.927,2.425,3.819C234.111,69.326,232.605,70.77,231.73,70.747z"/>
		<path fill="#FFFFFF" d="M213.584,67.168c0.318-10.174-1.293-20.303,5.007-29.429C223.998,43.23,220.759,61.437,213.584,67.168z"/>
		<path fill="#FFFFFF" d="M208.467,110.546c0.006,1.209,0.067,2.436,0.212,3.646l-5.903,0.78
			c-1.517-9.917-4.159-19.406-10.743-27.372c-0.741-0.903-0.725-2.431-0.97-3.333c6.104-1.862,11.656-3.551,17.376-5.291
			c0,0.864,0,1.862,0,2.86C208.438,91.407,208.411,100.974,208.467,110.546z"/>
		<path fill="#FFFFFF" d="M191.185,97.16c0-0.161,0.101-0.329,0.362-1.087c3.708,6.729,5.67,13.524,6.199,20.543
			c0.903,12.02,1.277,24.078,1.7,36.125c0.062,1.768-0.484,3.741-1.326,5.302c-1.433,2.659-4.281,2.592-5.653-0.089
			c-0.769-1.517-1.243-3.362-1.254-5.063C191.135,134.316,191.168,115.741,191.185,97.16z"/>
		<path d="M191.213,152.892c0.011,1.7,0.485,3.546,1.254,5.063c1.372,2.681,4.221,2.748,5.653,0.089
			c0.842-1.561,1.388-3.534,1.326-5.302c-0.423-12.047-0.797-24.105-1.7-36.125c-0.529-7.019-2.491-13.814-6.199-20.543
			c-0.262,0.758-0.362,0.926-0.362,1.087C191.168,115.741,191.135,134.316,191.213,152.892z M218.591,37.739
			c-6.3,9.126-4.688,19.255-5.007,29.429C220.759,61.437,223.998,43.23,218.591,37.739z M202.775,114.972
			c1.984,12.995,2.067,26.085,1.728,39.18c-0.156,6.1-3.886,10.659-8.68,10.877c-5.207,0.229-9.138-3.869-9.639-10.135
			c-0.134-1.667-0.117-3.346-0.117-5.018c-0.012-19.139-0.084-38.276,0.072-57.415c0.028-2.927-0.887-4.75-3.322-6.049
			c-1.305-0.702-2.731-1.288-3.819-2.252c-0.78-0.691-1.538-1.957-1.455-2.888c0.067-0.719,1.405-1.405,2.286-1.935
			c0.424-0.256,1.087-0.134,1.645-0.15c4.588-0.145,4.577-0.145,4.588-4.622c0.022-8.268-0.056-16.541,0.123-24.802
			c0.111-5.408,1.728-10.408,5.073-14.762c1.198-1.561,2.586-3.088,4.588-1.522c1.884,1.466,0.858,3.127-0.362,4.577
			c-3.011,3.59-4.148,7.927-4.248,12.42c-0.195,9.176-0.056,18.363-0.056,27.913c5.926-0.792,11.138-2.347,15.826-5.307
			c0.781-0.496,1.333-1.907,1.377-2.921c0.29-6.862,0.039-13.764,0.742-20.577c0.429-4.147,1.951-8.267,3.545-12.169
			c1.154-2.832,3.585-4.856,7.03-4.46c3.468,0.39,5.229,2.988,5.848,5.965c2.598,12.521-0.017,23.833-8.992,33.17
			c-2.196,2.291-3.055,4.426-3.005,7.498c0.167,10.497,0.051,21,0.072,31.497c0.006,3.212,0.43,6.322,2.782,8.798
			c3.161,3.328,8.184,3.211,10.458-0.759c1.399-2.436,2.124-5.553,2.208-8.396c0.273-9.003,0.101-18.023,0.105-27.032
			c0-0.836-0.229-1.907,0.19-2.442c0.646-0.836,1.75-1.761,2.687-1.79c0.691-0.022,1.661,1.21,2.068,2.085
			c0.356,0.774,0.111,1.828,0.117,2.754c0.072,9.566,0.145,19.132,0.223,28.693c0,0.279,0.039,0.558,0.072,0.837
			c0.58,5.022,3.729,8.423,7.732,8.346c3.925-0.078,7.23-3.669,7.448-8.636c0.273-6.306,0.234-12.621,0.29-18.938
			c0.039-4.12,1.015-7.911,3.729-11.111c4.142-4.873,11.25-5.647,16.289-1.795c1.428,1.093,2.659,2.369,1.377,4.187
			c-1.26,1.79-2.775,1.193-4.331,0.106c-3.97-2.776-8.29-1.756-10.492,2.564c-0.741,1.449-1.305,3.161-1.338,4.761
			c-0.145,6.685-0.072,13.374-0.033,20.059c0.006,0.819,0.223,1.655,0.451,2.452c1.183,4.098,3.97,6.462,7.426,6.351
			c3.301-0.106,6.261-2.854,7.103-6.813c0.346-1.623,0.117-3.39,0.597-4.951c0.29-0.931,1.404-2.163,2.229-2.229
			c0.848-0.067,2.503,1.048,2.576,1.778c0.54,5.073-0.519,9.84-4.132,13.669c-3.205,3.401-7.375,4.577-11.729,3.189
			c-2.682-0.858-4.979-2.927-7.526-4.505c-6.389,7.086-14.305,6.617-20.85-0.813c-0.15,0.39-0.212,0.809-0.435,1.081
			c-3.323,4.087-7.644,5.637-12.666,4.281c-5.274-1.416-8.101-5.352-9.216-10.52c-0.15-0.708-0.268-1.427-0.356-2.157
			c-0.145-1.21-0.206-2.437-0.212-3.646c-0.056-9.572-0.028-19.139-0.028-28.71c0-0.998,0-1.996,0-2.86
			c-5.72,1.739-11.271,3.428-17.376,5.291c0.245,0.903,0.229,2.431,0.97,3.333C198.616,95.566,201.259,105.055,202.775,114.972z"/>
		<path fill="#FFFFFF" d="M116.332,59.514c3.167,2.966,5.759,6.829,7.732,10.731c3.908,7.727,1.717,15.024-3.078,21.658
			c-5.764,7.983-13.831,12.884-22.985,15.899c-20.944,6.907-41.359,5.859-60.67-5.346c-3.93-2.286-7.515-5.525-10.531-8.965
			c-8.245-9.405-8.374-20.103-0.541-29.853c7.554-9.405,17.722-14.885,29.19-17.834c5.798-1.494,11.841-2.023,15.007-2.536
			C89.567,43.687,104.296,48.247,116.332,59.514z"/>
		<path fill="#FFFFFF" d="M66.477,159.136c18.542,1.159,36.264-1.963,52.537-11.339c10.748-6.194,19.634-14.4,23.269-26.587
			c1.874-6.282,1.934-13.106,2.815-19.685c-0.256-0.033-0.513-0.066-0.769-0.105c0-1.951-0.022-3.897,0.005-5.848
			c0.24-18.296-7.409-32.914-21.34-44.248C96.486,29.772,55.5,28.473,27.576,48.152C14.809,57.145,5.611,68.93,3.164,84.617
			c-1.316,8.457-0.803,17.204-0.937,25.822c-0.039,2.476,0.307,5.018,0.892,7.426c3.139,12.995,11.545,21.971,22.517,28.839
			C38.112,154.514,51.915,158.227,66.477,159.136z M-25.185-12.284c111.496,0,222.992,0,334.488,0c0,74.329,0,148.663,0,222.992
			c-111.496,0-222.992,0-334.488,0C-25.185,136.379-25.185,62.045-25.185-12.284z M270.163,63.968
			c0.039,3.3,2.531,5.736,5.854,5.731c3.256-0.006,5.82-2.542,5.843-5.776c0.017-3.194-2.564-5.859-5.748-5.92
			C272.8,57.936,270.124,60.623,270.163,63.968z M231.73,70.747c0.875,0.022,2.381-1.421,2.509-2.375
			c0.122-0.892-1.188-1.984-2.425-3.819c-1.299,1.795-2.648,2.849-2.548,3.747C229.372,69.259,230.833,70.725,231.73,70.747z
			 M209.035,116.349c1.115,5.168,3.941,9.104,9.216,10.52c5.022,1.355,9.343-0.194,12.666-4.281
			c0.223-0.272,0.284-0.691,0.435-1.081c6.545,7.431,14.461,7.899,20.85,0.813c2.548,1.578,4.845,3.646,7.526,4.505
			c4.354,1.388,8.523,0.212,11.729-3.189c3.613-3.829,4.672-8.596,4.132-13.669c-0.073-0.73-1.729-1.846-2.576-1.778
			c-0.825,0.066-1.939,1.299-2.229,2.229c-0.479,1.562-0.251,3.328-0.597,4.951c-0.842,3.958-3.802,6.706-7.103,6.813
			c-3.456,0.111-6.243-2.253-7.426-6.351c-0.229-0.797-0.445-1.633-0.451-2.452c-0.039-6.685-0.111-13.374,0.033-20.059
			c0.033-1.6,0.597-3.312,1.338-4.761c2.202-4.32,6.522-5.341,10.492-2.564c1.556,1.087,3.071,1.684,4.331-0.106
			c1.282-1.817,0.051-3.094-1.377-4.187c-5.039-3.853-12.147-3.078-16.289,1.795c-2.715,3.2-3.69,6.991-3.729,11.111
			c-0.056,6.316-0.017,12.632-0.29,18.938c-0.218,4.967-3.523,8.558-7.448,8.636c-4.003,0.077-7.152-3.323-7.732-8.346
			c-0.033-0.279-0.072-0.558-0.072-0.837c-0.078-9.561-0.15-19.126-0.223-28.693c-0.006-0.926,0.239-1.979-0.117-2.754
			c-0.407-0.875-1.377-2.107-2.068-2.085c-0.937,0.028-2.04,0.954-2.687,1.79c-0.419,0.535-0.19,1.606-0.19,2.442
			c-0.005,9.009,0.168,18.029-0.105,27.032c-0.084,2.843-0.809,5.96-2.208,8.396c-2.274,3.97-7.297,4.087-10.458,0.759
			c-2.353-2.476-2.776-5.586-2.782-8.798c-0.021-10.497,0.095-21-0.072-31.497c-0.05-3.072,0.809-5.207,3.005-7.498
			c8.976-9.338,11.59-20.649,8.992-33.17c-0.619-2.977-2.38-5.575-5.848-5.965c-3.445-0.396-5.876,1.628-7.03,4.46
			c-1.594,3.902-3.116,8.022-3.545,12.169c-0.703,6.813-0.452,13.714-0.742,20.577c-0.044,1.015-0.596,2.425-1.377,2.921
			c-4.688,2.96-9.9,4.516-15.826,5.307c0-9.55-0.14-18.737,0.056-27.913c0.1-4.493,1.237-8.831,4.248-12.42
			c1.221-1.45,2.246-3.111,0.362-4.577c-2.002-1.566-3.39-0.039-4.588,1.522c-3.346,4.354-4.962,9.354-5.073,14.762
			c-0.179,8.262-0.101,16.535-0.123,24.802c-0.011,4.477,0,4.477-4.588,4.622c-0.558,0.017-1.221-0.106-1.645,0.15
			c-0.881,0.53-2.219,1.215-2.286,1.935c-0.083,0.931,0.675,2.196,1.455,2.888c1.088,0.964,2.515,1.55,3.819,2.252
			c2.436,1.299,3.351,3.122,3.322,6.049c-0.156,19.139-0.084,38.276-0.072,57.415c0,1.672-0.017,3.351,0.117,5.018
			c0.501,6.266,4.432,10.363,9.639,10.135c4.794-0.218,8.523-4.777,8.68-10.877c0.34-13.095,0.257-26.185-1.728-39.18l5.903-0.78
			C208.768,114.922,208.885,115.641,209.035,116.349z"/>
		<path fill="#FFFFFF" d="M59.458,39.316c21.58-3.635,41.632,0.295,59.165,13.859c13.748,10.637,21.006,24.708,20.616,42.369
			c-0.033,1.482-0.005,2.972-0.005,4.454c0.295,8.128,0.106,16.145-4.031,23.554c-5.48,9.806-13.703,16.663-23.765,21.045
			c-28.526,12.409-56.674,11.813-83.767-4.147c-9.706-5.72-17.689-13.854-19.361-25.354c-2.765-19.021-2.86-37.931,10.949-53.78
			C29.95,49.039,43.603,41.992,59.458,39.316z M126.74,68.378c-2.007-3.696-4.583-7.309-7.643-10.168
			c-12.839-11.992-28.499-16.881-45.808-16.942c-1.951,0-3.914-0.145-5.843,0.022c-16.05,1.416-30.327,6.924-41.816,18.576
			C14.475,71.176,14.073,85.353,24.42,97.322c3.947,4.561,8.641,8.189,14.026,10.82c21.614,10.548,43.606,10.888,65.744,1.862
			c8.028-3.272,14.974-8.251,20.014-15.47C129.94,86.323,131.708,77.521,126.74,68.378z"/>
		<path d="M98.002,107.803c9.154-3.016,17.221-7.916,22.985-15.899c4.794-6.634,6.985-13.931,3.078-21.658
			c-1.974-3.902-4.566-7.766-7.732-10.731c-12.036-11.267-26.765-15.827-45.875-16.245c-3.167,0.513-9.209,1.042-15.007,2.536
			c-11.468,2.949-21.636,8.429-29.19,17.834c-7.833,9.75-7.704,20.448,0.541,29.853c3.016,3.44,6.601,6.679,10.531,8.965
			C56.643,113.662,77.058,114.71,98.002,107.803z M119.097,58.209c3.061,2.86,5.636,6.472,7.643,10.168
			c4.967,9.143,3.2,17.945-2.537,26.157c-5.04,7.219-11.986,12.198-20.014,15.47c-22.137,9.025-44.13,8.686-65.744-1.862
			c-5.385-2.631-10.079-6.26-14.026-10.82c-10.347-11.969-9.946-26.146,1.209-37.457c11.49-11.651,25.767-17.16,41.816-18.576
			c1.929-0.167,3.892-0.022,5.843-0.022C90.599,41.329,106.258,46.218,119.097,58.209z"/>
		<path d="M27.576,48.152c27.924-19.679,68.91-18.38,95.418,3.172c13.932,11.334,21.581,25.951,21.34,44.248
			c-0.027,1.951-0.005,3.897-0.005,5.848c0.256,0.039,0.513,0.072,0.769,0.105c-0.881,6.578-0.941,13.402-2.815,19.685
			c-3.635,12.187-12.521,20.393-23.269,26.587c-16.273,9.376-33.995,12.498-52.537,11.339c-14.562-0.909-28.365-4.622-40.841-12.432
			c-10.971-6.868-19.378-15.844-22.517-28.839c-0.585-2.408-0.931-4.95-0.892-7.426c0.134-8.618-0.379-17.365,0.937-25.822
			C5.611,68.93,14.809,57.145,27.576,48.152z M27.67,140.449c27.093,15.96,55.241,16.557,83.767,4.147
			c10.063-4.382,18.285-11.239,23.765-21.045c4.137-7.409,4.326-15.426,4.031-23.554c0-1.482-0.028-2.972,0.005-4.454
			c0.39-17.661-6.868-31.732-20.616-42.369C101.09,39.612,81.038,35.682,59.458,39.316c-15.855,2.676-29.508,9.722-40.2,21.998
			C5.449,77.164,5.544,96.073,8.309,115.095C9.981,126.596,17.964,134.729,27.67,140.449z"/>
	</g>
	<g>
	</g>
</g>
</svg>
