<?xml version="1.0" encoding="utf-8"?>
<!-- Generator: Adobe Illustrator 16.0.0, SVG Export Plug-In . SVG Version: 6.00 Build 0)  -->
<!DOCTYPE svg PUBLIC "-//W3C//DTD SVG 1.1//EN" "http://www.w3.org/Graphics/SVG/1.1/DTD/svg11.dtd">
<svg version="1.1" id="Layer_1" xmlns="http://www.w3.org/2000/svg" xmlns:xlink="http://www.w3.org/1999/xlink" x="0px" y="0px"
	 width="75px" height="75px" viewBox="0 0 75 75" enable-background="new 0 0 75 75" xml:space="preserve">
<path fill-rule="evenodd" clip-rule="evenodd" d="M70.34,39.081c-0.398,2.573-0.426,5.243-1.273,7.701
	c-1.646,4.769-5.666,7.979-10.529,10.4c-7.365,3.668-15.385,4.892-23.777,4.436c-6.589-0.354-12.836-1.807-18.481-4.862
	c-4.964-2.688-8.771-6.199-10.19-11.281c-0.264-0.943-0.421-1.938-0.404-2.905c0.062-3.372-0.17-6.796,0.426-10.103
	c1.107-6.139,5.268-10.749,11.046-14.269c12.638-7.699,31.185-7.19,43.181,1.243c6.303,4.433,9.766,10.152,9.654,17.31
	c-0.01,0.763,0,1.526,0,2.289C70.109,39.054,70.223,39.067,70.34,39.081z M67.686,38.484c0-0.583-0.012-1.165,0.004-1.746
	c0.176-6.908-3.109-12.413-9.33-16.574c-7.934-5.306-17.01-6.845-26.775-5.421c-7.174,1.045-13.352,3.803-18.193,8.606
	c-6.249,6.2-6.206,13.599-4.954,21.04c0.757,4.499,4.37,7.683,8.761,9.919c12.262,6.245,24.999,6.479,37.907,1.624
	c4.557-1.714,8.277-4.396,10.758-8.235C67.734,44.8,67.818,41.664,67.686,38.484z"/>
<path fill-rule="evenodd" clip-rule="evenodd" d="M38.104,14.672c7.834,0.023,14.92,1.936,20.732,6.628
	c1.385,1.117,2.549,2.532,3.457,3.978c2.25,3.577,1.449,7.02-1.146,10.233c-2.281,2.826-5.426,4.772-9.059,6.053
	c-10.018,3.53-19.971,3.398-29.751-0.729c-2.437-1.029-4.561-2.45-6.346-4.234c-4.684-4.681-4.502-10.229,0.546-14.655
	c5.199-4.558,11.66-6.712,18.923-7.265C36.334,14.615,37.223,14.672,38.104,14.672z M36.824,15.455
	c-1.433,0.202-4.168,0.409-6.791,0.991c-5.192,1.154-9.792,3.299-13.209,6.979c-3.544,3.813-3.487,8,0.245,11.68
	c1.364,1.346,2.985,2.613,4.765,3.505c8.74,4.386,17.977,4.797,27.454,2.094c4.145-1.181,7.793-3.098,10.402-6.221
	c2.17-2.596,3.162-5.45,1.395-8.474c-0.893-1.526-2.068-3.037-3.502-4.198C52.139,17.403,45.473,15.62,36.824,15.455z"/>
</svg>
